<svg xmlns="http://www.w3.org/2000/svg" xmlns:xlink="http://www.w3.org/1999/xlink" width="500" zoomAndPan="magnify" viewBox="0 0 375 374.999991" height="500" preserveAspectRatio="xMidYMid meet" version="1.0"><defs><g/><clipPath id="259326dd06"><path d="M 117.1875 48.046875 L 258 48.046875 L 258 122 L 117.1875 122 Z M 117.1875 48.046875 " clip-rule="nonzero"/></clipPath><clipPath id="fe72f10315"><path d="M 117.1875 98 L 258 98 L 258 198.046875 L 117.1875 198.046875 Z M 117.1875 98 " clip-rule="nonzero"/></clipPath></defs><rect x="-37.5" width="450" fill="#ffffff" y="-37.499999" height="449.999989" fill-opacity="1"/><rect x="-37.5" width="450" fill="#000000" y="-37.499999" height="449.999989" fill-opacity="1"/><g clip-path="url(#259326dd06)"><path fill="#d9d9d9" d="M 167.164062 109.507812 L 122.539062 87.195312 C 119.964844 85.910156 119.964844 83.820312 122.539062 82.535156 L 182.839844 52.386719 C 184.125 51.742188 185.8125 51.417969 187.5 51.417969 C 189.1875 51.417969 190.875 51.742188 192.164062 52.386719 L 252.460938 82.535156 C 255.039062 83.820312 255.039062 85.910156 252.460938 87.195312 L 234.144531 96.355469 L 232.257812 97.296875 L 230.375 98.238281 L 209.722656 108.566406 L 205.953125 110.449219 L 192.164062 117.347656 C 190.875 117.988281 189.1875 118.3125 187.5 118.3125 C 185.8125 118.3125 184.125 117.988281 182.839844 117.347656 L 169.046875 110.449219 Z M 187.5 121.679688 C 189.773438 121.679688 191.964844 121.210938 193.667969 120.359375 L 213.488281 110.449219 L 234.144531 100.125 L 236.027344 99.179688 L 237.910156 98.238281 L 253.96875 90.210938 C 256.378906 89.003906 257.761719 87.054688 257.761719 84.867188 C 257.761719 82.675781 256.378906 80.726562 253.96875 79.519531 L 193.667969 49.371094 C 191.964844 48.519531 189.773438 48.050781 187.5 48.050781 C 185.226562 48.050781 183.035156 48.519531 181.332031 49.371094 L 121.03125 79.519531 C 118.621094 80.726562 117.238281 82.675781 117.238281 84.867188 C 117.238281 87.054688 118.621094 89.003906 121.03125 90.210938 L 137.089844 98.238281 L 138.976562 99.179688 L 140.859375 100.125 L 161.511719 110.449219 L 163.394531 111.390625 L 165.28125 112.332031 L 181.332031 120.359375 C 183.035156 121.210938 185.226562 121.679688 187.5 121.679688 " fill-opacity="1" fill-rule="nonzero"/></g><g clip-path="url(#fe72f10315)"><path fill="#d9d9d9" d="M 252.460938 163.5625 L 192.164062 193.710938 C 190.875 194.355469 189.1875 194.679688 187.5 194.679688 C 185.8125 194.679688 184.125 194.355469 182.839844 193.710938 L 122.539062 163.5625 C 119.964844 162.277344 119.964844 160.191406 122.539062 158.902344 L 139.308594 150.515625 L 181.332031 171.53125 C 183.035156 172.382812 185.226562 172.851562 187.5 172.851562 C 189.773438 172.851562 191.964844 172.382812 193.667969 171.53125 L 235.695312 150.515625 L 252.460938 158.902344 C 255.039062 160.191406 255.039062 162.277344 252.460938 163.5625 Z M 252.460938 138.363281 L 235.695312 146.75 L 233.8125 147.691406 L 231.925781 148.632812 L 192.164062 168.515625 C 190.875 169.160156 189.1875 169.480469 187.5 169.480469 C 185.8125 169.480469 184.125 169.160156 182.839844 168.515625 L 139.308594 146.75 L 122.539062 138.363281 C 119.964844 137.078125 119.964844 134.992188 122.539062 133.703125 L 138.53125 125.707031 L 161.84375 137.363281 L 163.730469 138.304688 L 181.332031 147.109375 C 183.035156 147.960938 185.226562 148.429688 187.5 148.429688 C 189.773438 148.429688 191.964844 147.960938 193.667969 147.109375 L 211.273438 138.304688 L 236.46875 125.707031 L 252.460938 133.703125 C 255.039062 134.992188 255.039062 137.078125 252.460938 138.363281 Z M 257.761719 111.613281 C 257.761719 109.421875 256.378906 107.472656 253.96875 106.269531 L 237.910156 98.238281 L 234.144531 100.121094 L 252.460938 109.28125 C 255.039062 110.570312 255.039062 112.65625 252.460938 113.945312 L 209.390625 135.480469 L 207.503906 136.421875 L 192.164062 144.09375 C 190.875 144.738281 189.1875 145.058594 187.5 145.058594 C 185.8125 145.058594 184.125 144.738281 182.839844 144.09375 L 142.300781 123.824219 L 140.414062 122.882812 L 122.539062 113.945312 C 119.964844 112.65625 119.964844 110.570312 122.539062 109.28125 L 140.859375 100.121094 L 138.976562 99.179688 L 137.089844 98.238281 L 121.03125 106.269531 C 118.621094 107.472656 117.238281 109.421875 117.238281 111.613281 C 117.238281 113.804688 118.621094 115.75 121.03125 116.957031 L 134.765625 123.824219 L 121.03125 130.691406 C 118.621094 131.894531 117.238281 133.84375 117.238281 136.035156 C 117.238281 138.226562 118.621094 140.171875 121.03125 141.378906 L 135.542969 148.632812 L 121.03125 155.886719 C 118.621094 157.09375 117.238281 159.042969 117.238281 161.234375 C 117.238281 163.425781 118.621094 165.371094 121.035156 166.578125 L 181.332031 196.726562 C 183.035156 197.578125 185.226562 198.046875 187.5 198.046875 C 189.773438 198.046875 191.964844 197.578125 193.667969 196.726562 L 253.96875 166.574219 C 256.378906 165.371094 257.761719 163.425781 257.761719 161.234375 C 257.761719 159.042969 256.378906 157.09375 253.96875 155.886719 L 239.460938 148.632812 L 253.96875 141.378906 C 256.378906 140.171875 257.761719 138.226562 257.761719 136.035156 C 257.761719 133.84375 256.378906 131.894531 253.96875 130.691406 L 240.234375 123.824219 L 253.96875 116.957031 C 256.378906 115.75 257.761719 113.804688 257.761719 111.613281 " fill-opacity="1" fill-rule="nonzero"/></g><g fill="#ffffff" fill-opacity="1"><g transform="translate(100.236327, 276.090685)"><g><path d="M 20.25 0.65625 C 17.082031 0.65625 14.265625 0.265625 11.796875 -0.515625 C 9.328125 -1.296875 7.269531 -2.320312 5.625 -3.59375 C 3.976562 -4.863281 2.71875 -6.257812 1.84375 -7.78125 L 6.8125 -13.84375 L 7.59375 -13.84375 C 8.96875 -11.800781 10.710938 -10.175781 12.828125 -8.96875 C 14.941406 -7.757812 17.414062 -7.15625 20.25 -7.15625 C 22.664062 -7.15625 24.488281 -7.664062 25.71875 -8.6875 C 26.945312 -9.707031 27.5625 -11.113281 27.5625 -12.90625 C 27.5625 -13.988281 27.363281 -14.894531 26.96875 -15.625 C 26.570312 -16.351562 25.914062 -16.976562 25 -17.5 C 24.082031 -18.019531 22.84375 -18.46875 21.28125 -18.84375 L 15.40625 -20.1875 C 11.300781 -21.125 8.242188 -22.679688 6.234375 -24.859375 C 4.222656 -27.035156 3.21875 -29.863281 3.21875 -33.34375 C 3.21875 -35.925781 3.863281 -38.195312 5.15625 -40.15625 C 6.445312 -42.113281 8.328125 -43.632812 10.796875 -44.71875 C 13.265625 -45.800781 16.21875 -46.34375 19.65625 -46.34375 C 23.175781 -46.34375 26.191406 -45.878906 28.703125 -44.953125 C 31.210938 -44.023438 33.332031 -42.601562 35.0625 -40.6875 L 30.59375 -34.5625 L 29.8125 -34.5625 C 28.519531 -35.914062 27.039062 -36.929688 25.375 -37.609375 C 23.707031 -38.285156 21.800781 -38.625 19.65625 -38.625 C 17.175781 -38.625 15.289062 -38.1875 14 -37.3125 C 12.707031 -36.4375 12.0625 -35.226562 12.0625 -33.6875 C 12.0625 -32.25 12.515625 -31.101562 13.421875 -30.25 C 14.328125 -29.394531 15.894531 -28.726562 18.125 -28.25 L 24.125 -27 C 28.5625 -26.0625 31.78125 -24.472656 33.78125 -22.234375 C 35.78125 -19.992188 36.78125 -17.070312 36.78125 -13.46875 C 36.78125 -10.613281 36.164062 -8.128906 34.9375 -6.015625 C 33.707031 -3.898438 31.851562 -2.257812 29.375 -1.09375 C 26.894531 0.0703125 23.851562 0.65625 20.25 0.65625 Z M 20.25 0.65625 "/></g></g></g><g fill="#ffffff" fill-opacity="1"><g transform="translate(139.483928, 276.090685)"><g><path d="M 23.78125 -8.21875 L 26.03125 -1.8125 C 25.09375 -1.039062 23.914062 -0.4375 22.5 0 C 21.082031 0.4375 19.476562 0.65625 17.6875 0.65625 C 13.957031 0.65625 11.125 -0.359375 9.1875 -2.390625 C 7.25 -4.421875 6.28125 -7.375 6.28125 -11.25 L 6.28125 -27.625 L 1.03125 -27.625 L 1.03125 -34.5 L 6.28125 -34.5 L 6.28125 -41.21875 L 14.9375 -42.625 L 14.9375 -34.5 L 24.71875 -34.5 L 24.71875 -27.625 L 14.9375 -27.625 L 14.9375 -11.875 C 14.9375 -10.164062 15.289062 -8.921875 16 -8.140625 C 16.707031 -7.359375 17.738281 -6.96875 19.09375 -6.96875 C 20.632812 -6.96875 21.976562 -7.382812 23.125 -8.21875 Z M 23.78125 -8.21875 "/></g></g></g><g fill="#ffffff" fill-opacity="1"><g transform="translate(166.263547, 276.090685)"><g><path d="M 13.4375 0.65625 C 11.226562 0.65625 9.3125 0.25 7.6875 -0.5625 C 6.0625 -1.375 4.8125 -2.566406 3.9375 -4.140625 C 3.0625 -5.710938 2.625 -7.601562 2.625 -9.8125 C 2.625 -11.851562 3.0625 -13.566406 3.9375 -14.953125 C 4.8125 -16.335938 6.164062 -17.472656 8 -18.359375 C 9.832031 -19.242188 12.226562 -19.925781 15.1875 -20.40625 C 17.25 -20.738281 18.816406 -21.101562 19.890625 -21.5 C 20.960938 -21.894531 21.6875 -22.34375 22.0625 -22.84375 C 22.4375 -23.34375 22.625 -23.976562 22.625 -24.75 C 22.625 -25.851562 22.238281 -26.695312 21.46875 -27.28125 C 20.695312 -27.863281 19.414062 -28.15625 17.625 -28.15625 C 15.707031 -28.15625 13.882812 -27.726562 12.15625 -26.875 C 10.425781 -26.019531 8.925781 -24.894531 7.65625 -23.5 L 7.03125 -23.5 L 3.40625 -28.96875 C 5.15625 -30.90625 7.289062 -32.414062 9.8125 -33.5 C 12.332031 -34.582031 15.082031 -35.125 18.0625 -35.125 C 22.625 -35.125 25.925781 -34.15625 27.96875 -32.21875 C 30.007812 -30.28125 31.03125 -27.53125 31.03125 -23.96875 L 31.03125 -9 C 31.03125 -7.457031 31.707031 -6.6875 33.0625 -6.6875 C 33.582031 -6.6875 34.09375 -6.78125 34.59375 -6.96875 L 35.03125 -6.84375 L 35.65625 -0.8125 C 35.175781 -0.5 34.507812 -0.242188 33.65625 -0.046875 C 32.800781 0.148438 31.863281 0.25 30.84375 0.25 C 28.78125 0.25 27.171875 -0.144531 26.015625 -0.9375 C 24.859375 -1.726562 24.03125 -2.96875 23.53125 -4.65625 L 22.875 -4.71875 C 21.1875 -1.132812 18.039062 0.65625 13.4375 0.65625 Z M 16.1875 -5.8125 C 18.1875 -5.8125 19.785156 -6.484375 20.984375 -7.828125 C 22.179688 -9.171875 22.78125 -11.039062 22.78125 -13.4375 L 22.78125 -16.9375 L 22.1875 -17.0625 C 21.664062 -16.644531 20.984375 -16.296875 20.140625 -16.015625 C 19.296875 -15.734375 18.082031 -15.457031 16.5 -15.1875 C 14.625 -14.875 13.273438 -14.335938 12.453125 -13.578125 C 11.628906 -12.816406 11.21875 -11.738281 11.21875 -10.34375 C 11.21875 -8.863281 11.65625 -7.738281 12.53125 -6.96875 C 13.40625 -6.195312 14.625 -5.8125 16.1875 -5.8125 Z M 16.1875 -5.8125 "/></g></g></g><g fill="#ffffff" fill-opacity="1"><g transform="translate(202.605082, 276.090685)"><g><path d="M 16.125 0.65625 C 13.769531 0.65625 11.613281 0.378906 9.65625 -0.171875 C 7.695312 -0.722656 6.023438 -1.484375 4.640625 -2.453125 C 3.253906 -3.421875 2.226562 -4.53125 1.5625 -5.78125 L 6.375 -10.96875 L 7.03125 -10.96875 C 8.175781 -9.425781 9.53125 -8.269531 11.09375 -7.5 C 12.65625 -6.726562 14.351562 -6.34375 16.1875 -6.34375 C 17.875 -6.34375 19.144531 -6.644531 20 -7.25 C 20.851562 -7.851562 21.28125 -8.71875 21.28125 -9.84375 C 21.28125 -10.71875 20.972656 -11.453125 20.359375 -12.046875 C 19.742188 -12.640625 18.75 -13.101562 17.375 -13.4375 L 12.8125 -14.53125 C 9.394531 -15.34375 6.898438 -16.585938 5.328125 -18.265625 C 3.753906 -19.941406 2.96875 -22.070312 2.96875 -24.65625 C 2.96875 -26.800781 3.515625 -28.664062 4.609375 -30.25 C 5.703125 -31.832031 7.242188 -33.039062 9.234375 -33.875 C 11.222656 -34.707031 13.539062 -35.125 16.1875 -35.125 C 19.289062 -35.125 21.863281 -34.675781 23.90625 -33.78125 C 25.945312 -32.882812 27.539062 -31.6875 28.6875 -30.1875 L 24.0625 -25.1875 L 23.4375 -25.1875 C 22.476562 -26.269531 21.398438 -27.0625 20.203125 -27.5625 C 19.003906 -28.0625 17.664062 -28.3125 16.1875 -28.3125 C 12.769531 -28.3125 11.0625 -27.25 11.0625 -25.125 C 11.0625 -24.226562 11.378906 -23.5 12.015625 -22.9375 C 12.648438 -22.375 13.769531 -21.914062 15.375 -21.5625 L 19.625 -20.625 C 23.125 -19.875 25.679688 -18.671875 27.296875 -17.015625 C 28.910156 -15.359375 29.71875 -13.132812 29.71875 -10.34375 C 29.71875 -8.15625 29.175781 -6.226562 28.09375 -4.5625 C 27.007812 -2.894531 25.445312 -1.609375 23.40625 -0.703125 C 21.363281 0.203125 18.9375 0.65625 16.125 0.65625 Z M 16.125 0.65625 "/></g></g></g><g fill="#ffffff" fill-opacity="1"><g transform="translate(234.384396, 276.090685)"><g><path d="M 4.96875 0 L 4.96875 -48.3125 L 13.625 -48.3125 L 13.625 -29.96875 L 14.28125 -29.84375 C 15.425781 -31.53125 16.832031 -32.832031 18.5 -33.75 C 20.164062 -34.664062 22.175781 -35.125 24.53125 -35.125 C 32.132812 -35.125 35.9375 -30.8125 35.9375 -22.1875 L 35.9375 0 L 27.28125 0 L 27.28125 -21.09375 C 27.28125 -23.445312 26.8125 -25.15625 25.875 -26.21875 C 24.9375 -27.28125 23.476562 -27.8125 21.5 -27.8125 C 19.082031 -27.8125 17.164062 -27.003906 15.75 -25.390625 C 14.332031 -23.773438 13.625 -21.257812 13.625 -17.84375 L 13.625 0 Z M 4.96875 0 "/></g></g></g></svg>